<?xml version="1.0" encoding="utf-8"?>
<!-- Generator: Adobe Illustrator 24.3.0, SVG Export Plug-In . SVG Version: 6.00 Build 0)  -->
<svg version="1.1" id="Camada_1" xmlns="http://www.w3.org/2000/svg" xmlns:xlink="http://www.w3.org/1999/xlink" x="0px" y="0px"
	 viewBox="0 0 1600 700" style="enable-background:new 0 0 1600 700;" xml:space="preserve">
<style type="text/css">
	.st0{display:none;}
	.st1{display:inline;fill:#57AEF4;}
	.st2{display:inline;fill:#0F88E9;}
	.st3{display:inline;}
	.st4{fill:#9EDFF6;}
	.st5{opacity:0.25;fill:url(#SVGID_1_);enable-background:new    ;}
	.st6{opacity:0.28;fill:url(#SVGID_2_);enable-background:new    ;}
	.st7{fill:#FFFFFF;}
	.st8{fill:#545151;}
	.st9{fill:#EBE4EB;}
	.st10{fill:#FF7446;}
	.st11{fill:#407FFE;}
	.st12{opacity:0.61;fill:#B3CBB1;enable-background:new    ;}
	.st13{fill:#000444;}
	.st14{fill:#F98548;}
	.st15{fill:#006A6B;}
	.st16{fill:#E6E6E6;}
	.st17{opacity:0.5;fill:#FF916C;enable-background:new    ;}
	.st18{fill:#F99F70;}
	.st19{fill:#20110C;}
	.st20{fill:#FFA283;}
	.st21{opacity:0.65;fill:#F26E5A;enable-background:new    ;}
	.st22{fill:#528BFF;}
	.st23{fill:#FFD4CD;}
	.st24{fill:#0A2126;}
	.st25{fill:#EDF7F9;}
	.st26{opacity:0.39;fill:#9CAAAD;enable-background:new    ;}
	.st27{fill:#FDFFFF;}
	.st28{opacity:0.68;fill:#FF7F4C;enable-background:new    ;}
	.st29{fill:#09434C;}
	.st30{fill:#F78763;}
	.st31{fill:#263364;}
	.st32{fill:#B9DEE8;}
	.st33{fill:#2896FF;}
	.st34{fill:#0091C8;}
	.st35{fill:#A0EBFF;}
	.st36{fill:#41B4E6;}
	.st37{fill:#4B6EBC;}
	.st38{fill:#AAC6E9;}
	.st39{fill:#39AE96;}
	.st40{fill:#13E275;}
	.st41{fill:#297F58;}
	.st42{fill:#557DD6;}
	.st43{fill:#E16450;}
	.st44{fill:#05CDFF;}
	.st45{fill:#55C7A6;}
	.st46{fill:#2C313F;}
	.st47{fill:#BC723F;}
	.st48{fill:#965224;}
	.st49{fill:#2A4997;}
	.st50{fill:#375599;}
	.st51{fill:none;stroke:#263364;stroke-width:1.7457;stroke-miterlimit:10;}
	.st52{fill:#FF3C3C;}
	.st53{fill:#AA321E;}
	.st54{fill:#FCE3C3;}
	.st55{fill:#EDCDAB;}
	.st56{fill:#D89D4E;}
	.st57{fill:#0073AA;}
	.st58{fill:#6EE1FF;}
	.st59{enable-background:new    ;}
	.st60{fill:#41A0D7;}
	.st61{fill:#8AE8FF;}
	.st62{fill:#FA870A;}
	.st63{fill:#FFA50A;}
	.st64{fill:#FFDC64;}
	.st65{fill:#F5876E;}
	.st66{fill:#96DBBF;}
</style>
<g class="st0">
	<polygon class="st1" points="2276,708 211,708 1608.1,444.1 1658.8,471.7 	"/>
</g>
<g class="st0">
	<polygon class="st2" points="1633,717 -44,717 -44,469.4 713.2,550.4 	"/>
</g>
<g class="st0">
	<g class="st3">
		<g>
			<ellipse class="st4" cx="245.3" cy="491.7" rx="183.2" ry="126.2"/>
			
				<linearGradient id="SVGID_1_" gradientUnits="userSpaceOnUse" x1="4.0331" y1="255.1252" x2="347.6621" y2="-13.1464" gradientTransform="matrix(1 0 0 -1 0 559.9999)">
				<stop  offset="0" style="stop-color:#7CCDEA"/>
				<stop  offset="1" style="stop-color:#CC97FE"/>
			</linearGradient>
			<path class="st5" d="M428.4,491.7c0-24.3-10-47-27.3-66.3c-13.2,23.5-32.1,44.2-59.3,54.1c-83.2,30.4-123.4-43-207.7,10.5
				c-28.2,17.9-45.8,36.3-56.6,52.8c28.4,44.3,92.8,75.2,167.6,75.2C346.4,617.9,428.4,561.4,428.4,491.7z"/>
			
				<linearGradient id="SVGID_2_" gradientUnits="userSpaceOnUse" x1="-118.4708" y1="267.35" x2="294.5856" y2="-55.1238" gradientTransform="matrix(1 0 0 -1 0 559.9999)">
				<stop  offset="0" style="stop-color:#7CCDEA"/>
				<stop  offset="1" style="stop-color:#CC97FE"/>
			</linearGradient>
			<path class="st6" d="M138.2,391.4c0.6-1,1.1-2,1.6-3C92.8,411.3,62,449,62,491.7c0,69.7,82,126.2,183.2,126.2
				c47.5,0,90.8-12.5,123.4-32.9c-10.8-9.9-31.8-21.9-65.9-36.3C161.3,488.8,98.1,461.6,138.2,391.4z"/>
		</g>
		<g>
			<g>
				<path class="st7" d="M310.5,457H246c-9.6,0-17.3-7.8-17.3-17.3v-94.9c0-9.6,7.8-17.3,17.3-17.3h64.4c9.6,0,17.3,7.8,17.3,17.3
					v94.9C327.8,449.3,320.1,457,310.5,457z"/>
				<g>
					<path class="st8" d="M287.5,342.9c-4.4,0-6.7,0-11.2,0v3.5h10.2c0,1.9,0,3.8,0,5.6h-10.2c0,1.5,0,2.8,0,4.4c4.4,0,7,0,11.5,0
						c0,1.8,0,3.8,0,5.6c-7.1,0-12.2,0-19.2,0c0-8.2,0-16.5,0-24.7c7,0,11.8,0,18.8,0C287.5,339.1,287.5,341,287.5,342.9z"/>
					<g>
						<path class="st8" d="M263.5,379.2v5.3c-1.7,0-3.4,0-5.1,0v-16.2c4.1,0,8.3,0,12.4,0c0,1.4,0,2.3,0,3.8h-7.2v3.6h6.4
							c0,1.4,0,2.3,0,3.8h-6.5L263.5,379.2L263.5,379.2z"/>
						<path class="st8" d="M282.4,384.5c0-5.4,0-10.8,0-16.2c2.9,0,5.8,0,8.7,0c9.5,0,9.5,12.1,0,12.1h-3.7v4.2
							C285.8,384.5,284.1,384.5,282.4,384.5z M291.1,371.9c-1.2,0-2.5,0-3.7,0c0,1.4,0,3.3,0,4.6h3.7
							C293.9,376.5,294.1,371.9,291.1,371.9z"/>
					</g>
					<g>
						<path class="st8" d="M250.7,393c0-0.9,0-2,0-2.9h11.5c0,0.9,0,2,0,2.9h-3.8v9.8c-1.3,0-2.6,0-3.9,0V393H250.7z"/>
						<path class="st8" d="M269.9,396.5c0-8.8,16-8.8,16,0C285.8,405.3,269.9,405.3,269.9,396.5z M281.8,396.5c0-4.6-7.8-4.6-7.8,0
							C273.9,401.1,281.8,401.1,281.8,396.5z"/>
						<path class="st8" d="M305.8,390.6l-6.4,9.3h6.4c0,1.1,0,1.8,0,2.9h-12.4v-0.5l6.3-9.3h-5.8c0-1.1,0-1.8,0-2.9h11.8
							L305.8,390.6L305.8,390.6z"/>
					</g>
					<g>
						<path class="st8" d="M253.6,414.2h4.3c0,0.9,0,1.4,0,2.2c-2.4,0-5,0-7.3,0v-9.6c1,0,2,0,3.1,0
							C253.6,411.9,253.6,410.1,253.6,414.2z"/>
						<path class="st8" d="M264.6,416.5c0-3.2,0-6.4,0-9.6c1.7,0,3.4,0,5.2,0c5.6,0,5.6,7.2,0,7.2h-2.1v2.5
							C266.7,416.5,265.7,416.5,264.6,416.5z M269.9,409c-0.7,0-1.5,0-2.1,0c0,0.8,0,2,0,2.7h2.1C271.5,411.8,271.6,409,269.9,409z"
							/>
						<path class="st8" d="M288.4,409c-1.8,0-2.6,0-4.4,0v1.4h4c0,0.8,0,1.5,0,2.2h-4c0,0.6,0,1.1,0,1.7c1.7,0,2.7,0,4.5,0
							c0,0.7,0,1.5,0,2.2c-2.7,0-4.8,0-7.5,0c0-3.2,0-6.5,0-9.6c2.7,0,4.6,0,7.3,0C288.4,407.6,288.4,408.3,288.4,409z"/>
						<path class="st8" d="M300.2,416.5h-4.4v-9.6h4.4C307.9,406.8,307.9,416.5,300.2,416.5z M298.8,414.2h1.5c3.8,0,3.8-5.1,0-5.1
							h-1.5V414.2z"/>
					</g>
					<g>
						<path class="st8" d="M251.2,428.1c0-2.4,0-4.8,0-7.1c1.3,0,2.6,0,3.8,0c4.2,0,4.2,5.3,0,5.3h-1.6v1.8
							C252.7,428.1,251.9,428.1,251.2,428.1z M255,422.5c-0.5,0-1.1,0-1.6,0c0,0.6,0,1.5,0,2h1.6C256.2,424.6,256.3,422.6,255,422.5
							z"/>
						<path class="st8" d="M268.7,422.5c-1.3,0-2,0-3.2,0v1h3c0,0.5,0,1.1,0,1.6h-3c0,0.4,0,0.9,0,1.3c1.3,0,2,0,3.3,0
							c0,0.5,0,1.1,0,1.6c-2,0-3.5,0-5.5,0c0-2.4,0-4.8,0-7.1c2,0,3.4,0,5.5,0C268.7,421.5,268.7,422,268.7,422.5z"/>
						<path class="st8" d="M278,420.8c1.8,0,3.8,0.8,4.1,2.7c-0.8,0-1.5,0-2.2,0c-0.3-0.7-0.9-1-1.9-1c-1.3,0-2.1,0.8-2.1,2
							c0,1,0.9,2,2.1,2c0.9,0,1.7-0.4,2-1.1c0.8,0,1.5,0,2.2,0c-0.3,2-2.3,2.8-4.1,2.8c-2.2,0-4.4-1.2-4.4-3.7
							C273.6,422.1,275.8,420.8,278,420.8z"/>
						<path class="st8" d="M289.6,425.8v2.3c-0.8,0-1.5,0-2.3,0v-7.2c1.8,0,3.7,0,5.5,0c0,0.6,0,1,0,1.6h-3.2v1.5h2.8
							c0,0.6,0,1,0,1.6L289.6,425.8L289.6,425.8z"/>
						<path class="st8" d="M301.2,428.1H298v-7.2h3.2C306.8,421,306.8,428.1,301.2,428.1z M300.2,426.4h1c2.8,0,2.8-3.8,0-3.8h-1
							V426.4z"/>
					</g>
					<g>
						<path class="st8" d="M255.6,434.3c-1.1,0-1.6,0-2.7,0v0.9h2.5c0,0.4,0,0.9,0,1.4h-2.5c0,0.3,0,0.7,0,1c1.1,0,1.7,0,2.8,0
							c0,0.4,0,0.9,0,1.4c-1.7,0-3,0-4.6,0c0-2,0-4,0-6c1.7,0,2.8,0,4.5,0C255.6,433.4,255.6,433.8,255.6,434.3z"/>
						<path class="st8" d="M262.9,438.8h-2.7v-6h2.7C267.6,432.9,267.6,438.8,262.9,438.8z M262,437.5h0.9c2.3,0,2.3-3.2,0-3.2H262
							V437.5z"/>
						<path class="st8" d="M272.6,436.9v2c-0.6,0-1.3,0-1.9,0v-6c1.5,0,3.1,0,4.5,0c0,0.5,0,0.9,0,1.4h-2.6v1.3h2.3
							c0,0.5,0,0.9,0,1.4L272.6,436.9L272.6,436.9z"/>
						<path class="st8" d="M282.8,432.9c1.5,0,3.2,0.7,3.4,2.3c-0.6,0-1.2,0-1.8,0c-0.3-0.6-0.9-0.9-1.6-0.9c-1.1,0-1.8,0.7-1.8,1.6
							s0.7,1.6,1.8,1.6c0.8,0,1.5-0.3,1.6-0.9c0.6,0,1.2,0,1.8,0c-0.3,1.7-1.9,2.4-3.4,2.4c-1.9,0-3.8-1-3.8-3.1
							C279.1,433.9,280.9,432.9,282.8,432.9z"/>
						<path class="st8" d="M295.6,433.1l-3,4.4h3c0,0.5,0,0.9,0,1.4h-5.7v-0.3l3-4.4h-2.7c0-0.5,0-0.9,0-1.4h5.5L295.6,433.1
							L295.6,433.1z"/>
						<path class="st8" d="M299.8,438.8c0-2,0-3.9,0-6c1,0,2.1,0,3.2,0c3.5,0,3.5,4.4,0,4.4h-1.4v1.5
							C301,438.8,300.4,438.8,299.8,438.8z M303,434.3c-0.4,0-0.9,0-1.4,0c0,0.5,0,1.2,0,1.7h1.4C304,435.9,304.1,434.3,303,434.3z"
							/>
					</g>
					<g>
						<path class="st8" d="M252.4,447.1h-2v-4.4h2C256,442.7,256,447.1,252.4,447.1z M251.8,446.1h0.7c1.7,0,1.7-2.4,0-2.4h-0.7
							V446.1z"/>
						<path class="st8" d="M261.7,443.6c-0.9,0-1.2,0-2,0v0.6h1.9c0,0.3,0,0.7,0,1h-1.9c0,0.3,0,0.5,0,0.8c0.8,0,1.3,0,2.1,0
							c0,0.3,0,0.7,0,1c-1.3,0-2.2,0-3.5,0c0-1.5,0-3,0-4.4c1.3,0,2.1,0,3.4,0C261.7,442.9,261.7,443.3,261.7,443.6z"/>
						<path class="st8" d="M266.5,445.7v1.5c-0.4,0-0.9,0-1.5,0v-4.4c1.1,0,2.3,0,3.4,0c0,0.3,0,0.6,0,1h-2v0.9h1.8c0,0.3,0,0.6,0,1
							H266.5L266.5,445.7z"/>
						<path class="st8" d="M271.7,447.1c0-1.5,0-3,0-4.4c0.8,0,1.6,0,2.4,0c2.6,0,2.6,3.3,0,3.3h-1v1.1
							C272.7,447.1,272.2,447.1,271.7,447.1z M274.2,443.6c-0.3,0-0.7,0-1,0c0,0.3,0,0.9,0,1.3h1C275,444.9,275,443.7,274.2,443.6z"
							/>
						<path class="st8" d="M279,444.9c0-3.1,5.6-3.1,5.6,0S279,448,279,444.9z M283.2,444.9c0-1.6-2.7-1.6-2.7,0
							S283.2,446.5,283.2,444.9z"/>
						<path class="st8" d="M287.3,443.6c0-0.3,0-0.7,0-1h4.1c0,0.3,0,0.7,0,1H290v3.4c-0.4,0-0.9,0-1.4,0v-3.4H287.3z"/>
						<path class="st8" d="M297.8,443.6c-0.9,0-1.2,0-2,0v0.6h1.9c0,0.3,0,0.7,0,1h-1.9c0,0.3,0,0.5,0,0.8c0.8,0,1.3,0,2.1,0
							c0,0.3,0,0.7,0,1c-1.3,0-2.2,0-3.5,0c0-1.5,0-3,0-4.4c1.3,0,2.1,0,3.4,0C297.8,442.9,297.8,443.3,297.8,443.6z"/>
						<path class="st8" d="M303.7,442.6c1.1,0,2.4,0.5,2.6,1.7c-0.5,0-0.9,0-1.4,0c-0.2-0.4-0.6-0.7-1.2-0.7c-0.9,0-1.4,0.5-1.4,1.3
							c0,0.7,0.5,1.2,1.4,1.3c0.6,0,1.1-0.3,1.2-0.7c0.4,0,0.9,0,1.4,0c-0.2,1.3-1.5,1.8-2.6,1.8c-1.4,0-2.8-0.8-2.8-2.3
							C300.8,443.4,302.3,442.6,303.7,442.6z"/>
					</g>
				</g>
			</g>
			<path class="st9" d="M119.6,576.9c34-4.2,49.9,0,49.9,0c-3.1-47.5-26.5-97.2-26.5-97.2c-24.9,1-31.2,16.9-31.2,16.9
				C111.7,547.7,119.6,576.9,119.6,576.9z"/>
			<g>
				<path class="st10" d="M128.7,650.2c2.7,2.7,2.7,6.1-0.2,6.7c-2.9,0.6-9.8-0.2-9.8-0.2s-1.5-2.6-0.5-9.6c1.1-7-0.9-15-0.9-15
					l7.9-1.3C125.2,630.8,126.6,648.1,128.7,650.2z"/>
				<path class="st7" d="M127.9,646.3c0,0,2.9,3.8,3.6,5.4c0.7,1.6,0.5,5.5,0,6c-4.8,3.6-13.7,0.3-13.7,0.3s-0.6-2.6-0.9-5.8
					s-0.2-6.2,0.9-6.2c1,0,1.3,1.7,3.7,1.2C124,646.7,125.4,645.9,127.9,646.3z"/>
				<path class="st10" d="M170.5,638.4c-0.4,3.2,1.3,6.4,4.3,7.9c1,0.5,2.2,0.9,3.5,1.3c4.9,1,10.7-0.4,12.3,3.2
					c1.6,3.8-28.9,4.3-28.9,4.3s0.1-9.8-0.1-11.4c-0.2-1.6-1.7-7.3-1.7-7.3l11.3-2.9L170.5,638.4z"/>
				<path class="st7" d="M161.4,648.2c0,0-0.1,1.5-0.3,4.3c-0.3,2.7,0.7,5,0.7,5s27.9-3.8,28.9-5c0.9-1-0.3-4-0.6-4.2
					c-0.3-0.3-4.5-0.9-6.5-1.5c-2-0.8-8.5-3.2-10.5-2.6c-2,0.5-2.7,2.2-6.6,3.1C162.5,648,162.3,647.3,161.4,648.2z"/>
				<path class="st11" d="M104.9,490c0,0-1.6,10.8-1.6,25s7.8,115.1,14.2,128c0.9,2,9.2,0,9.2,0s0.5-129.4,2.8-129.4
					s2.9-0.3,2.9-0.3S159,633.5,159,643.1c0,0,9.6,0.1,13.7-3.8c0,0-19.1-147.2-23.9-153.2C144.1,480.1,104.9,490,104.9,490z"/>
				<path class="st12" d="M152.5,500.6c-1.5-8.1-2.7-13.4-3.6-14.4c-4.8-6.1-43.9,3.8-43.9,3.8s-1.6,10.8-1.6,25s7.8,115.1,14.2,128
					c0.4,0.9,2.5,1,4.5,0.8c-0.9-7.8-19.4-124.7-9.3-136.5C120.6,498.2,144.2,501,152.5,500.6z"/>
				<path class="st13" d="M205.2,390.8l-1.2-2.1c0,0,55.5-29.9,55.7-29.2C260.1,360.1,205.2,390.8,205.2,390.8z"/>
				<path class="st14" d="M166.7,409c0,0,8.8-1.9,15.5-5.5s29.9-18.1,31.3-20.1c1.5-2,4.5-6,8.5-8.6c3.1-2.2,10.5-2,10.5-1.3
					c0,0.5-4,0.8-7,3.2c-3.1,2.6-3.8,4.3-3.1,4.4c1.5,0.3,5-3.9,3.8-1.2c-0.7,1.6-3.8,4.7-7.5,7.3c-8.5,9.5-22.8,25.7-35.6,32.5
					c-18.9,10.1-18.9,10.1-18.9,10.1L166.7,409z"/>
				<path class="st15" d="M99.8,423.2c2.6-2.6,14.1-6.1,14.1-6.1s10.2-2.9,25.7-2.9l11.1,23c1,5.9,7.4,61.4,2,63.5
					c-5.5,2.1-39.8,0.1-49.4-7.9C103.3,492.7,97.2,425.8,99.8,423.2z"/>
				<path class="st16" d="M140.3,412.5c7.1,0.1,14.1-1,20.7-3.4c3-1.1,4.3-1.7,6.9-2.6c0,0,6.7,18.1,5.1,23.6l-24.4,8.9
					c-1.6,0.6-2.8,2-3,3.7L140.3,412.5z"/>
				<path class="st7" d="M114.5,416.9c16.6,60.3,18,167.3,18,167.3c-12.8,5.3-45.7,1.7-45.7,1.7c8.5-86.3,10.4-143.6,10.4-143.6
					c-0.9-18.3,2-19.5,2-19.5C102.6,420.3,113.4,416.2,114.5,416.9z"/>
				<path class="st16" d="M114.5,416.9c-1.6,5.6-1.1,25.2-1.1,25.2c3.7,11.3,11.4,30,11.4,30C124.4,446.8,114.5,416.9,114.5,416.9z"
					/>
				<path class="st14" d="M80.7,462.6c0,0-2.6,20.9,0,25.3s26.4-9.1,33.5-13.8c5.1-3.4,10.6-5,14.4-5.8c3.8-0.8,4.2-2.3,3.8-2.6
					c-0.4-0.3,1.7-2.2,1.7-3.4s0.4-2.7-0.7-3.8c-1.1-1-9.6,4-10.7,2.9c-1.1-1,2.4-2.7,0.4-3.6c-0.7-0.3-4.9,3.2-9,5.7
					c-7.7,4.7-17.3,9.9-18.4,8.5c-1.5-2.2,1-11.3,1-11.3L80.7,462.6z"/>
				<path class="st14" d="M113.4,401.1l1.1,15.8c0,0,12.8,8.8,14.8,7.6c2-1.2-2-11.8-2-11.8l-0.4-11L113.4,401.1z"/>
				<path class="st17" d="M125.8,411.3c0.4-0.1,0.9-0.2,1.2-0.4l-0.3-9.2l-13.3-0.6l0.4,6.1C117.2,410.6,122.5,411.9,125.8,411.3z"
					/>
				<path class="st18" d="M121.6,377c0,0,5,0.7,6.7,2.4c1.8,1.7,2.6,10.3,2.6,15.1s-1.8,13.7-6.5,14.4c-4.7,0.9-13.3-2.4-14.1-10.3
					c-0.8-7.9-5.5-15.5,2.4-18.8C120.6,376.7,121.6,377,121.6,377z"/>
				<path class="st16" d="M100.3,422.1c-15.4,4-20.2,19.5-23.3,42.1c0,0,12,6.7,22,1.9l0.9-2.4c1.3-3.6,2-7.4,2-11.2
					C102,442.5,102.5,421.5,100.3,422.1z"/>
				<path class="st13" d="M135,372.6c-2.5-5.9-11.4-6-13.4-3.4s-4.9,0.1-8.5,0.9c-1.3,0.3-2.9,1.5-4.4,3.2c-0.5,0.5-1.1,0.9-1.8,1.1
					c-2.2,0.4-4.2,2.8-4.2,6.1c0,1.5,0.4,2.8,1.1,3.8c0.8,1.1,0.7,2.6-0.1,3.7l0,0c-1.4,1.9,1.6,5.8,3.2,7.3
					c1.5,1.4-0.3,3.4,0.3,6.1s6.1,3.8,6.1,3.8c0-0.2-5.2-9.4-1.5-17c0.3-0.7,1.2-1.1,2-1c3.2,0.3,6.7-0.7,7.6-2.4
					c0.4-0.9,1.5-1.3,2.5-1c3,0.6,4.4,0.9,6.4,0.3C139,381.6,136.5,376.3,135,372.6z"/>
				<path class="st18" d="M111.3,395.5c0,0-0.8-2.7-2.4-2s0.3,7.2,2.7,7.2C113.9,400.7,111.3,395.5,111.3,395.5z"/>
			</g>
			<g>
				<path class="st19" d="M437.4,474.1c0,0-7.9-1.2-5.4-9c2.4-7.9,6.7-7.3,6.2-11.9c-0.5-4.5-4-2.8,0-13.2s32.1-5.2,32.9,4.3
					s6.1,10.7,8.3,14c6.2,9.5-1.3,27.2-9,23c-7.8-4.2-7.5-3.1-9.1,3.4s-10.6-5.5-15.2-4.9C441.3,480.2,436.6,478.3,437.4,474.1z"/>
				<g>
					<path class="st20" d="M395.8,551.1c-0.3-0.3-4,2.4-4.6,2.2c-0.5-0.2-0.4-0.6-0.2-1c0,0,4.7-3.4,6.9-3.8
						c2.2-0.4,6.1,1.8,6.9,0.9c0.8-0.9,22.1-59.7,22.1-59.7l8.9,7.7c0,0-9.6,24.2-10.8,27.2c-1.9,4.8-13.7,25.2-14.1,27.2
						s-0.9,2.9-3.9,3.9c-3.1,1.1-6.8,1.6-7.3,0.4c-0.5-1.3,2.9-0.9,2.9-1.5s-3-1.6-4.4-0.8c-1.5,0.9-5,4.4-5.8,3.2
						c-0.8-1,4.4-4.3,4.3-4.4c-0.2-0.2-4.5,3.2-5.2,3.1c-0.7-0.1-0.7-1,0.2-1.6C392.4,553.4,396.1,551.3,395.8,551.1z"/>
					<path class="st21" d="M429,499.5c0.4-1.7,0.4-4.4,1.3-7l5.5,4.8c0,0-9.6,24.2-10.8,27.2c-1.9,4.8-13.7,25.2-14.1,27.2
						c-0.1,0.3-0.2,0.6-0.3,0.9l0,0c0,0-1.1-2.6,1-7.6c1.3-3.1,9.2-18.9,13.7-31.2C428.1,506.2,429,499.5,429,499.5z"/>
					<path class="st22" d="M440.9,477c0,0-5,0.9-9.3,4.3c-4.4,3.3-8,15.1-8,15.1s-0.8,1.8,10,4.4C444.2,503.4,440.9,477,440.9,477z"
						/>
					<path class="st23" d="M440.9,477c-11.4,5-11.4,17.2-12.4,22.4c1.3,0.4,3,0.9,5,1.5C444.2,503.4,441.6,476.6,440.9,477z"/>
				</g>
				<g>
					<g>
						<polygon class="st24" points="419.7,582.9 462.8,582.9 465.1,577.5 417.2,577.5 						"/>
						<path class="st7" d="M468.6,540L468.6,540c3.7,0.9,7.3-1.5,8.2-5.1l6.5-27.7c0.9-3.7-1.5-7.3-5.1-8.2l0,0
							c-3.7-0.9-7.3,1.5-8.2,5.1l-6.5,27.7C462.7,535.4,464.9,539,468.6,540z"/>
						<polygon class="st24" points="477.6,532 480.6,530.9 485,512.2 482.7,510.1 						"/>
						<g>
							<path class="st24" d="M490.3,577c4.5-6.8-8.3-24.4-9.2-33.2c-1.2-10.4,0-15.4,0-15.5l-2.1-0.5c-0.1,0.2-1.3,5.3,0,16.2
								c1.3,11.1,18.8,33.6,4.9,33.4c-15.8-0.3-24.6,0-24.7,0l0.1,2.1c0.1,0,8.9-0.3,24.6,0C486.3,579.7,489,579.2,490.3,577z"/>
						</g>
						<rect x="435.7" y="580.2" class="st24" width="10.4" height="20.7"/>
						<rect x="438.3" y="600.8" class="st25" width="5.2" height="34.2"/>
						<g>
							<polygon class="st24" points="437.1,643.3 444.8,643.3 444.8,636.8 444.8,631.5 437.1,631.5 							"/>
							<polygon class="st24" points="473.1,651.2 444.8,636.8 444.8,643.3 465.1,651.2 465.1,652.7 473.1,652.7 							"/>
							<polygon class="st24" points="408.8,651.2 408.8,652.7 416.8,652.7 416.8,651.2 437.1,643.3 437.1,636.8 							"/>
							<polygon class="st24" points="437.1,652.7 437.1,653.8 445.4,653.8 445.4,652.7 443.5,652.7 443.5,636.8 438.3,636.8 
								438.9,652.7 							"/>
							<polygon class="st26" points="438.3,636.8 438.9,652.7 440.9,652.7 442.6,636.8 							"/>
							<polygon class="st26" points="408.8,651.2 408.8,651.2 437.1,640.2 437.1,636.8 							"/>
						</g>
						<path class="st7" d="M417.1,577.5h49.6c2.7,0,5-2.2,5-5l0,0c0-2.7-2.2-5-5-5h-49.6c-2.7,0-5,2.2-5,5l0,0
							C412.1,575.3,414.3,577.5,417.1,577.5z"/>
						<path class="st27" d="M417.2,567.6h49.5c1.5,0,2.7,0.6,3.6,1.5c-0.6,0-37.3,0-49.7,0c-4.4,0-6.6,5.2-3.6,8.4
							c-2.6,0-4.9-2.2-4.9-4.9C414.9,572.7,417.2,570.4,417.2,567.6z"/>
					</g>
					<path class="st20" d="M423.6,544.6c0,0-49.3,4-49.3,18.5c0,12,22.2,60.5,26.3,79.1c0.8,3.5-3.8,8.5-3.6,9.1
						c1.1,2.6,6.8-1.1,6.8-1.1l4.4-13.4c0,0-16.9-62.9-11.8-68s54.9-15.8,54.9-15.8L423.6,544.6z"/>
					<path class="st28" d="M388.2,563.5c4-12.1,41.1-14.8,41.1-14.8l15.9,2.5l6.1,1.9c0,0-49.7,10.7-54.9,15.8
						c-3.2,3.2,2.2,29.1,6.7,48C395.8,595.6,385.9,570.3,388.2,563.5z"/>
					<path class="st20" d="M468.7,553.4c0,0,1.5,6.8-2.6,10.9c-4.1,4.1-50,2-52.2,8c-4,10.8,6.6,64.3,6.6,64.3l-4.5,13.3
						c0,0-6.2,4.2-6.8,2.6c-0.3-0.8,4.4-6.7,3.8-11.4c-2-17.8-25.4-68.5-22-78.6c4-12.1,41.1-14.8,41.1-14.8L468.7,553.4z"/>
					<path class="st15" d="M469.3,554.8c0,0,0.9,7.6-5.4,12.5c-3,2.4-50.2,5-50.2,5s1.7-8.4-8.2-12s-20.1-5-28-3.3
						c0,0,1.5-5,16.3-9.3s35.8-7.5,35.8-7.5L469.3,554.8z"/>
					<path class="st29" d="M407.9,636.7c0,0,1-0.7,2.6,1.5c1.5,2.2,0.9,14.6,0.9,14.6l-2.3,0.5c0,0-0.1-9.1-0.6-9s-1.5,9.6-2.7,10.2
						s-9.8,2.8-11.4,1.7s2.7-4.8,2.7-4.8s4.4-0.3,5-0.9C402.3,649.8,407.9,636.7,407.9,636.7z"/>
					<path class="st29" d="M420.3,636.7c0,0,1-0.7,2.6,1.5c1.5,2.2,0.9,14.6,0.9,14.6l-2.3,0.5c0,0-0.1-9.1-0.6-9s-1.5,9.6-2.7,10.2
						s-9.8,2.8-11.4,1.7c-1.5-1.1,2.7-4.8,2.7-4.8s4.4-0.3,5-0.9C414.8,649.8,420.3,636.7,420.3,636.7z"/>
				</g>
				<g>
					<path class="st11" d="M432.3,487.7c0,0-2.6,10.8-3.6,18.2c-0.3,2,1.9,8.7,3.2,15.4c2.6,13.5-0.1,17.2-3.2,19.1
						c15.6,5.5,28.3,19.4,40.5,18.8c3.7-15.2-2.8-21.7-0.9-34.6c3-19.5,7.3-36.1,5.1-40.3c-3.6-6.8-13.7-7.7-13.7-7.7l-18.8,0.2
						C441.1,476.8,433.8,481.1,432.3,487.7z"/>
					<path class="st23" d="M461.1,484.5c0.6-3.4,3.7-5.9,7.1-5.4c1,0.6,2.1,1.3,3,2.1c0.2,0.3,0.3,0.6,0.4,0.9
						c1.1,2.3,1.9,4.8,2.3,7.3c-0.5,8.7-4.1,25.9-6.4,40.9c-0.9-5.4-3-18-5.5-21.3C460.1,506.3,460.4,488.9,461.1,484.5z"/>
					<path class="st30" d="M446.8,462.3c0,0-0.7,9.4-1.5,11.4c-0.9,2-4.2,3.1-4.2,3.1s-3.9,8.4,4.4,12.5
						c8.3,4.2,14.9-12.6,14.9-12.6s-2.4-0.2-2.9-0.4c-2-0.9-0.5-18.2-0.5-18.2L446.8,462.3z"/>
					<path class="st21" d="M457,458c0,0-0.1,1.3-0.3,3.1c-3,7.4-7.9,11.3-11.2,11.8c0.8-3.1,1.3-10.6,1.3-10.6L457,458z"/>
					<path class="st30" d="M482.6,503.2c2.4,16.4,2,18.9-0.9,22.2c-11.5-10.8-12.3-16.3-12.3-16.3
						C471.9,503.3,482.6,503.2,482.6,503.2z"/>
					<path class="st22" d="M469.6,479.3c-3.3-0.9-6.1,3-6.2,6.4c-0.2,6.5,1.5,16.8,2.1,20.8c0.9,6.1,19.6,0.9,18.6-4.4
						C481.3,488.7,475.6,480.8,469.6,479.3z"/>
					<path class="st20" d="M458.8,453.3c0.4-1.7,0.3-3.4-0.2-5.1c-0.7-2.1-2-4.9-4.7-6.2c-4.6-2.5-9.2-1.5-11.6,4.6
						s-1.1,16.4,1.5,19.7C446.2,469.6,455.5,466.7,458.8,453.3z"/>
					<path class="st20" d="M457.4,453.5c0,0,3-3.7,4.3-1.2S461,460,458,460C455,459.9,457.4,453.5,457.4,453.5z"/>
					<g>
						<path class="st7" d="M452.1,484.5L452.1,484.5c-0.9-0.1-1.5-0.8-1.4-1.6l1.5-23.2c0.1-0.9,0.8-1.5,1.6-1.4l0,0
							c0.9,0.1,1.5,0.8,1.4,1.6l-1.5,23.2C453.6,483.9,452.9,484.6,452.1,484.5z"/>
						<path class="st7" d="M461.7,454.7c-0.3,4.3-3.9,7.4-8.2,7.2c-4.3-0.3-7.4-3.9-7.2-8.2c0.3-4.3,3.9-7.4,8.2-7.2
							C458.8,446.8,462,450.4,461.7,454.7z"/>
					</g>
					<path class="st20" d="M478,526.1c-7.7-1.3-20.1-28.1-24.7-32.9c0,0-5.8-5-7-8c-0.8-2,3.9-7.7,6.8-7.1
						c4.3,0.9,6.3,16.1,8.9,17.2s15.2,13.5,16,14.4C483.8,516.1,485.6,527.3,478,526.1z"/>
				</g>
			</g>
			<path class="st7" d="M127.9,414.6c13.1,29.6,32,167.1,32,167.1c10.9,2.3,18.9,0,18.9,0c-2.3-65-27.8-144-27.8-144
				c-5.5-12.7-10.8-25.3-10.8-25.3C132.9,413.6,127.9,414.6,127.9,414.6z"/>
			<path class="st16" d="M127.9,414.6c8.4,28.5,13.8,57.8,13.8,57.8c-1.1-24-1.5-30.1-1.5-30.1C135.2,428.2,127.9,414.6,127.9,414.6
				z"/>
		</g>
	</g>
</g>
<image style="display:none;overflow:visible;enable-background:new    ;" width="803" height="809" xlink:href="workspace/sheerlens/sheerlens.frontend/src/assets/img/icon_branco.png"  transform="matrix(7.179822e-02 0 0 7.179822e-02 1503.8644 565.954)">
</image>
<g>
	<g>
		<g>
			<g>
				<path class="st31" d="M1203.5,561.8c-3.4-2-6.2-0.4-6.2,3.4c0,3.9,2.8,8.6,6.2,10.5c3.4,2,6.2,0.4,6.2-3.4
					C1209.6,568.5,1206.9,563.8,1203.5,561.8z"/>
				<path class="st31" d="M1202.4,579.1c3.6-0.4,5.5-1.9,6.2-3.5l-8.7-14.6c-2,0.5-5.5,2.1-6.4,4.3L1202.4,579.1z"/>
			</g>
			<g>
				<path class="st31" d="M1199.1,564.4c-3.4-2-6.2-0.4-6.2,3.4s2.8,8.6,6.2,10.5c3.4,2,6.2,0.4,6.2-3.4
					C1205.3,571.1,1202.5,566.4,1199.1,564.4z"/>
				<path class="st7" d="M1199.1,566.2c-2.5-1.5-4.6-0.3-4.6,2.5c0,2.9,2.1,6.4,4.6,7.9c2.5,1.5,4.6,0.3,4.6-2.5
					C1203.7,571.1,1201.6,567.6,1199.1,566.2z"/>
			</g>
		</g>
		<g>
			<g>
				<path class="st31" d="M1261.2,560.9c3.4-2,6.2-0.4,6.2,3.4c0,3.9-2.8,8.6-6.2,10.5c-3.4,2-6.2,0.4-6.2-3.4
					C1255,567.5,1257.7,562.8,1261.2,560.9z"/>
				<path class="st31" d="M1262.2,578.2c-3.6-0.4-5.5-1.9-6.2-3.5l8.7-14.6c2,0.5,5.5,2.1,6.4,4.3L1262.2,578.2z"/>
			</g>
			<g>
				<path class="st31" d="M1265.5,563.4c3.4-2,6.2-0.4,6.2,3.4s-2.8,8.6-6.2,10.5c-3.4,2-6.2,0.4-6.2-3.4
					C1259.4,570.1,1262.1,565.4,1265.5,563.4z"/>
				<path class="st7" d="M1265.5,565.5c2.4-1.4,4.3-0.3,4.3,2.4c0,2.7-1.9,5.9-4.3,7.3c-2.4,1.4-4.3,0.3-4.3-2.4
					C1261.3,570.2,1263.2,566.9,1265.5,565.5z"/>
			</g>
		</g>
		<g>
			<g>
				<path class="st31" d="M1192.4,601.1c3.4-2,6.2-0.4,6.2,3.4c0,3.9-2.8,8.6-6.2,10.5c-3.4,2-6.2,0.4-6.2-3.4
					C1186.2,607.7,1189,603,1192.4,601.1z"/>
				<path class="st31" d="M1193.5,618.4c-3.6-0.4-5.5-1.9-6.2-3.5l8.7-14.6c2,0.5,5.5,2.1,6.4,4.3L1193.5,618.4z"/>
			</g>
			<g>
				<path class="st31" d="M1196.8,603.6c3.4-2,6.2-0.4,6.2,3.4c0,3.9-2.8,8.6-6.2,10.5c-3.4,2-6.2,0.4-6.2-3.4
					C1190.6,610.3,1193.4,605.6,1196.8,603.6z"/>
				<path class="st7" d="M1196.8,605.8c2.3-1.4,4.3-0.3,4.3,2.3c0,2.6-1.9,5.9-4.3,7.2s-4.3,0.3-4.3-2.3
					C1192.5,610.4,1194.4,607.1,1196.8,605.8z"/>
			</g>
		</g>
		<g>
			<g>
				
					<ellipse transform="matrix(0.8559 -0.5171 0.5171 0.8559 -130.0946 744.4823)" class="st31" cx="1270.9" cy="605.7" rx="5" ry="8.6"/>
				<path class="st31" d="M1269.8,616c3.6-0.4,5.5-1.9,6.2-3.5l-8.7-14.6c-2,0.5-5.5,2.1-6.4,4.3L1269.8,616z"/>
			</g>
			<g>
				<path class="st31" d="M1266.5,601.3c-3.4-2-6.2-0.4-6.2,3.4c0,3.9,2.8,8.6,6.2,10.5c3.4,2,6.2,0.4,6.2-3.4
					S1269.9,603.2,1266.5,601.3z"/>
				<path class="st7" d="M1266.5,603.2c-2.5-1.4-4.5-0.3-4.5,2.5c0,2.8,2,6.2,4.5,7.6c2.5,1.4,4.5,0.3,4.5-2.5
					C1271,608,1269,604.6,1266.5,603.2z"/>
			</g>
		</g>
	</g>
	<g>
		<g>
			<path class="st32" d="M1397.4,493.9l-9.1,144.2c0,1.8,2.7,3.3,6,3.3s6-1.5,6-3.3l9.1-144.2H1397.4z"/>
			<path class="st33" d="M1400.8,424.3l-4.9,69.6c0,2.3,3.4,4.1,7.6,4.1c4.2,0,7.6-1.8,7.6-4.1l6.2-69.6H1400.8z"/>
		</g>
		<g>
			<path class="st32" d="M1487.9,436.7l9.1,144.2c0,1.8-2.7,3.3-6,3.3s-6-1.5-6-3.3l-9.1-144.2H1487.9z"/>
			<path class="st33" d="M1471.7,408.2l2.5,28.6c0,2.3,3.4,4.1,7.6,4.1c4.2,0,7.6-1.8,7.6-4.1l-2-28.6H1471.7z"/>
		</g>
	</g>
	<g>
		<g>
			<path class="st32" d="M1147,350.6l-9.1,144.2c0,1.8,2.7,3.3,6,3.3s6-1.5,6-3.3l9.1-144.2H1147z"/>
			<path class="st33" d="M1150.4,281l-4.9,69.6c0,2.3,3.4,4.1,7.6,4.1c4.2,0,7.6-1.8,7.6-4.1l6.2-69.6H1150.4z"/>
		</g>
	</g>
	<polygon class="st34" points="1398.7,446.2 1135.1,295.3 1135.1,317.9 1398.7,468.7 	"/>
	<polygon class="st35" points="1398.7,444.2 1495.4,387.5 1495.4,411.9 1398.7,468.7 	"/>
	<polygon class="st35" points="1503.2,371.3 1394.1,435.6 1394.1,448 1501.9,384.3 	"/>
	<polygon class="st36" points="1394.1,435.6 1119.1,279.2 1119.1,291.5 1394.1,448 	"/>
	<polygon class="st7" points="1229.8,215.1 1119.1,279.2 1394.1,435.6 1503.2,371.3 	"/>
	<path class="st35" d="M1368.6,366.6c0,0-3.3,3.3-4.6,5.1c-1.3,1.7-3.9,5.6-7.1,7.8c-3.2,2.2-30.9,17.3-30.9,17.3l-12.9-7.3
		L1368.6,366.6z"/>
	<g>
		<path class="st35" d="M1276.5,315.8l-25.4,15c-1.2,0.7-1.1,2.3,0,3l61.8,35.2c1.1,0.6,2.5,0.6,3.6,0l25.1-15c1.1-0.7,1.1-2.3,0-3
			l-61.5-35.2C1279,315.1,1277.6,315.1,1276.5,315.8z"/>
		<rect x="1245.4" y="326" class="st37" width="2.3" height="3.9"/>
		<rect x="1335.4" y="346.1" class="st31" width="2.3" height="3.9"/>
		<path class="st31" d="M1271.7,313.3l-25.4,15c-1.2,0.7-1.1,2.3,0,3l61.8,35.2c1.1,0.6,2.5,0.6,3.6,0l25.1-15c1.1-0.7,1.1-2.3,0-3
			l-61.5-35.2C1274.2,312.7,1272.8,312.7,1271.7,313.3z"/>
		<path class="st38" d="M1271.7,309.6l-25.4,15c-1.2,0.7-1.1,2.3,0,3l61.8,35.2c1.1,0.6,2.5,0.6,3.6,0l25.1-15c1.1-0.7,1.1-2.3,0-3
			l-61.5-35.2C1274.2,308.9,1272.8,308.9,1271.7,309.6z"/>
		<g>
			<g>
				<path class="st37" d="M1310.1,356.8l-2.1,1.3c-0.3,0.2-0.3,0.6,0,0.8l2.3,1.3c0.3,0.1,0.6,0.1,0.8,0l2.1-1.3
					c0.3-0.2,0.3-0.6,0-0.8l-2.3-1.3C1310.7,356.6,1310.4,356.6,1310.1,356.8z"/>
				<path class="st37" d="M1305.4,354.1l-2.1,1.3c-0.3,0.2-0.3,0.6,0,0.8l2.3,1.3c0.3,0.1,0.6,0.1,0.8,0l2.1-1.3
					c0.3-0.2,0.3-0.6,0-0.8l-2.3-1.3C1305.9,353.9,1305.6,353.9,1305.4,354.1z"/>
				<path class="st37" d="M1300.6,351.4l-2.1,1.3c-0.3,0.2-0.3,0.6,0,0.8l2.3,1.3c0.3,0.1,0.6,0.1,0.8,0l2.1-1.3
					c0.3-0.2,0.3-0.6,0-0.8l-2.3-1.3C1301.2,351.2,1300.9,351.2,1300.6,351.4z"/>
				<path class="st37" d="M1295.8,348.7l-2.2,1.3c-0.3,0.2-0.3,0.6,0,0.8l2.3,1.3c0.3,0.1,0.6,0.1,0.8,0l2.1-1.3
					c0.3-0.2,0.3-0.6,0-0.8l-2.3-1.3C1296.4,348.5,1296.1,348.5,1295.8,348.7z"/>
				<path class="st37" d="M1291.1,346l-2.1,1.3c-0.3,0.2-0.3,0.6,0,0.8l2.3,1.3c0.3,0.1,0.6,0.1,0.8,0l2.1-1.3
					c0.3-0.2,0.3-0.6,0-0.8l-2.3-1.3C1291.6,345.8,1291.3,345.8,1291.1,346z"/>
				<path class="st37" d="M1286.3,343.3l-2.1,1.3c-0.3,0.2-0.3,0.6,0,0.8l2.3,1.3c0.3,0.1,0.6,0.1,0.8,0l2.1-1.3
					c0.3-0.2,0.3-0.6,0-0.8l-2.3-1.3C1286.9,343.1,1286.6,343.1,1286.3,343.3z"/>
				<path class="st37" d="M1281.5,340.6l-2.1,1.3c-0.3,0.2-0.3,0.6,0,0.8l2.3,1.3c0.3,0.1,0.6,0.1,0.8,0l2.1-1.3
					c0.3-0.2,0.3-0.6,0-0.8l-2.3-1.3C1282.1,340.4,1281.8,340.4,1281.5,340.6z"/>
				<path class="st37" d="M1276.8,337.9l-2.1,1.3c-0.3,0.2-0.3,0.6,0,0.8l2.3,1.3c0.3,0.1,0.6,0.1,0.8,0l2.1-1.3
					c0.3-0.2,0.3-0.6,0-0.8l-2.3-1.3C1277.3,337.7,1277,337.7,1276.8,337.9z"/>
				<path class="st37" d="M1272,335.2l-2.1,1.3c-0.3,0.2-0.3,0.6,0,0.8l2.3,1.3c0.3,0.1,0.6,0.1,0.8,0l2.1-1.3
					c0.3-0.2,0.3-0.6,0-0.8l-2.3-1.3C1272.6,335,1272.3,335,1272,335.2z"/>
				<path class="st37" d="M1267.2,332.5l-2.1,1.3c-0.3,0.2-0.3,0.6,0,0.8l2.3,1.3c0.3,0.1,0.6,0.1,0.8,0l2.1-1.3
					c0.3-0.2,0.3-0.6,0-0.8l-2.3-1.3C1267.8,332.3,1267.5,332.3,1267.2,332.5z"/>
				<path class="st37" d="M1262.5,329.8l-2.1,1.3c-0.3,0.2-0.3,0.6,0,0.8l2.3,1.3c0.3,0.1,0.6,0.1,0.8,0l2.1-1.3
					c0.3-0.2,0.3-0.6,0-0.8l-2.3-1.3C1263,329.6,1262.7,329.6,1262.5,329.8z"/>
				<path class="st37" d="M1257.7,327.1l-2.1,1.3c-0.3,0.2-0.3,0.6,0,0.8l2.3,1.3c0.3,0.1,0.6,0.1,0.8,0l2.1-1.3
					c0.3-0.2,0.3-0.6,0-0.8l-2.3-1.3C1258.3,326.9,1258,326.9,1257.7,327.1z"/>
				<path class="st37" d="M1252.9,324.3l-2.1,1.3c-0.3,0.2-0.3,0.6,0,0.8l2.3,1.3c0.3,0.1,0.6,0.1,0.8,0l2.1-1.3
					c0.3-0.2,0.3-0.6,0-0.8l-2.3-1.3C1253.5,324.2,1253.2,324.2,1252.9,324.3z"/>
			</g>
			<g>
				<path class="st37" d="M1314.9,353.7l-2.1,1.3c-0.3,0.2-0.3,0.6,0,0.8l2.3,1.3c0.3,0.1,0.6,0.1,0.8,0l2.1-1.3
					c0.3-0.2,0.3-0.6,0-0.8l-2.3-1.3C1315.5,353.6,1315.2,353.6,1314.9,353.7z"/>
				<path class="st37" d="M1310.1,351l-2.1,1.3c-0.3,0.2-0.3,0.6,0,0.8l2.3,1.3c0.3,0.1,0.6,0.1,0.8,0l2.1-1.3
					c0.3-0.2,0.3-0.6,0-0.8l-2.3-1.3C1310.7,350.9,1310.4,350.9,1310.1,351z"/>
				<path class="st37" d="M1305.4,348.3l-2.1,1.3c-0.3,0.2-0.3,0.6,0,0.8l2.3,1.3c0.3,0.1,0.6,0.1,0.8,0l2.1-1.3
					c0.3-0.2,0.3-0.6,0-0.8l-2.3-1.3C1305.9,348.2,1305.6,348.2,1305.4,348.3z"/>
				<path class="st37" d="M1300.6,345.6l-2.1,1.3c-0.3,0.2-0.3,0.6,0,0.8l2.3,1.3c0.3,0.1,0.6,0.1,0.8,0l2.1-1.3
					c0.3-0.2,0.3-0.6,0-0.8l-2.3-1.3C1301.2,345.5,1300.9,345.5,1300.6,345.6z"/>
				<path class="st37" d="M1295.8,342.9l-2.2,1.3c-0.3,0.2-0.3,0.6,0,0.8l2.3,1.3c0.3,0.1,0.6,0.1,0.8,0l2.1-1.3
					c0.3-0.2,0.3-0.6,0-0.8l-2.3-1.3C1296.4,342.8,1296.1,342.8,1295.8,342.9z"/>
				<path class="st37" d="M1291.1,340.2l-2.1,1.3c-0.3,0.2-0.3,0.6,0,0.8l2.3,1.3c0.3,0.1,0.6,0.1,0.8,0l2.1-1.3
					c0.3-0.2,0.3-0.6,0-0.8l-2.3-1.3C1291.6,340.1,1291.3,340.1,1291.1,340.2z"/>
				<path class="st37" d="M1286.3,337.5l-2.1,1.3c-0.3,0.2-0.3,0.6,0,0.8l2.3,1.3c0.3,0.1,0.6,0.1,0.8,0l2.1-1.3
					c0.3-0.2,0.3-0.6,0-0.8l-2.3-1.3C1286.9,337.4,1286.6,337.4,1286.3,337.5z"/>
				<path class="st37" d="M1281.5,334.8l-2.1,1.3c-0.3,0.2-0.3,0.6,0,0.8l2.3,1.3c0.3,0.1,0.6,0.1,0.8,0l2.1-1.3
					c0.3-0.2,0.3-0.6,0-0.8l-2.3-1.3C1282.1,334.7,1281.8,334.7,1281.5,334.8z"/>
				<path class="st37" d="M1276.8,332.1l-2.1,1.3c-0.3,0.2-0.3,0.6,0,0.8l2.3,1.3c0.3,0.1,0.6,0.1,0.8,0l2.1-1.3
					c0.3-0.2,0.3-0.6,0-0.8l-2.3-1.3C1277.3,332,1277,332,1276.8,332.1z"/>
				<path class="st37" d="M1272,329.4l-2.1,1.3c-0.3,0.2-0.3,0.6,0,0.8l2.3,1.3c0.3,0.1,0.6,0.1,0.8,0l2.1-1.3
					c0.3-0.2,0.3-0.6,0-0.8l-2.3-1.3C1272.6,329.3,1272.3,329.3,1272,329.4z"/>
				<path class="st37" d="M1267.2,326.7l-2.1,1.3c-0.3,0.2-0.3,0.6,0,0.8l2.3,1.3c0.3,0.1,0.6,0.1,0.8,0l2.1-1.3
					c0.3-0.2,0.3-0.6,0-0.8l-2.3-1.3C1267.8,326.6,1267.5,326.6,1267.2,326.7z"/>
				<path class="st37" d="M1262.5,324l-2.1,1.3c-0.3,0.2-0.3,0.6,0,0.8l2.3,1.3c0.3,0.1,0.6,0.1,0.8,0l2.1-1.3
					c0.3-0.2,0.3-0.6,0-0.8l-2.3-1.3C1263,323.9,1262.7,323.9,1262.5,324z"/>
				<path class="st37" d="M1257.7,321.3l-2.1,1.3c-0.3,0.2-0.3,0.6,0,0.8l2.3,1.3c0.3,0.1,0.6,0.1,0.8,0l2.1-1.3
					c0.3-0.2,0.3-0.6,0-0.8l-2.3-1.3C1258.3,321.2,1258,321.2,1257.7,321.3z"/>
			</g>
			<g>
				<path class="st37" d="M1319.7,350.7l-2.1,1.3c-0.3,0.2-0.3,0.6,0,0.8l2.3,1.3c0.3,0.1,0.6,0.1,0.8,0l2.1-1.3
					c0.3-0.2,0.3-0.6,0-0.8l-2.3-1.3C1320.2,350.5,1319.9,350.5,1319.7,350.7z"/>
				<path class="st37" d="M1314.9,348l-2.1,1.3c-0.3,0.2-0.3,0.6,0,0.8l2.3,1.3c0.3,0.1,0.6,0.1,0.8,0l2.1-1.3
					c0.3-0.2,0.3-0.6,0-0.8l-2.3-1.3C1315.5,347.8,1315.2,347.8,1314.9,348z"/>
				<path class="st37" d="M1310.1,345.3l-2.1,1.3c-0.3,0.2-0.3,0.6,0,0.8l2.3,1.3c0.3,0.1,0.6,0.1,0.8,0l2.1-1.3
					c0.3-0.2,0.3-0.6,0-0.8l-2.3-1.3C1310.7,345.1,1310.4,345.1,1310.1,345.3z"/>
				<path class="st37" d="M1305.4,342.6l-2.1,1.3c-0.3,0.2-0.3,0.6,0,0.8l2.3,1.3c0.3,0.1,0.6,0.1,0.8,0l2.1-1.3
					c0.3-0.2,0.3-0.6,0-0.8l-2.3-1.3C1305.9,342.4,1305.6,342.4,1305.4,342.6z"/>
				<path class="st37" d="M1300.6,339.9l-2.1,1.3c-0.3,0.2-0.3,0.6,0,0.8l2.3,1.3c0.3,0.1,0.6,0.1,0.8,0l2.1-1.3
					c0.3-0.2,0.3-0.6,0-0.8l-2.3-1.3C1301.2,339.7,1300.9,339.7,1300.6,339.9z"/>
				<path class="st37" d="M1295.8,337.2l-2.2,1.3c-0.3,0.2-0.3,0.6,0,0.8l2.3,1.3c0.3,0.1,0.6,0.1,0.8,0l2.1-1.3
					c0.3-0.2,0.3-0.6,0-0.8l-2.3-1.3C1296.4,337,1296.1,337,1295.8,337.2z"/>
				<path class="st37" d="M1291.1,334.5l-2.1,1.3c-0.3,0.2-0.3,0.6,0,0.8l2.3,1.3c0.3,0.1,0.6,0.1,0.8,0l2.1-1.3
					c0.3-0.2,0.3-0.6,0-0.8l-2.3-1.3C1291.6,334.3,1291.3,334.3,1291.1,334.5z"/>
				<path class="st37" d="M1286.3,331.8l-2.1,1.3c-0.3,0.2-0.3,0.6,0,0.8l2.3,1.3c0.3,0.1,0.6,0.1,0.8,0l2.1-1.3
					c0.3-0.2,0.3-0.6,0-0.8l-2.3-1.3C1286.9,331.6,1286.6,331.6,1286.3,331.8z"/>
				<path class="st37" d="M1281.5,329.1l-2.1,1.3c-0.3,0.2-0.3,0.6,0,0.8l2.3,1.3c0.3,0.1,0.6,0.1,0.8,0l2.1-1.3
					c0.3-0.2,0.3-0.6,0-0.8l-2.3-1.3C1282.1,328.9,1281.8,328.9,1281.5,329.1z"/>
				<path class="st37" d="M1276.8,326.4l-2.1,1.3c-0.3,0.2-0.3,0.6,0,0.8l2.3,1.3c0.3,0.1,0.6,0.1,0.8,0l2.1-1.3
					c0.3-0.2,0.3-0.6,0-0.8l-2.3-1.3C1277.3,326.2,1277,326.2,1276.8,326.4z"/>
				<path class="st37" d="M1272,323.7l-2.1,1.3c-0.3,0.2-0.3,0.6,0,0.8l2.3,1.3c0.3,0.1,0.6,0.1,0.8,0l2.1-1.3
					c0.3-0.2,0.3-0.6,0-0.8l-2.3-1.3C1272.6,323.5,1272.3,323.5,1272,323.7z"/>
				<path class="st37" d="M1267.2,321l-2.1,1.3c-0.3,0.2-0.3,0.6,0,0.8l2.3,1.3c0.3,0.1,0.6,0.1,0.8,0l2.1-1.3
					c0.3-0.2,0.3-0.6,0-0.8l-2.3-1.3C1267.8,320.8,1267.5,320.8,1267.2,321z"/>
				<path class="st37" d="M1262.5,318.3l-2.1,1.3c-0.3,0.2-0.3,0.6,0,0.8l2.3,1.3c0.3,0.1,0.6,0.1,0.8,0l2.1-1.3
					c0.3-0.2,0.3-0.6,0-0.8l-2.3-1.3C1263,318.1,1262.7,318.1,1262.5,318.3z"/>
			</g>
			<g>
				<path class="st37" d="M1324.4,347.7l-2.1,1.3c-0.3,0.2-0.3,0.6,0,0.8l2.3,1.3c0.3,0.1,0.6,0.1,0.8,0l2.1-1.3
					c0.3-0.2,0.3-0.6,0-0.8l-2.3-1.3C1325,347.5,1324.7,347.5,1324.4,347.7z"/>
				<path class="st37" d="M1319.7,345l-2.1,1.3c-0.3,0.2-0.3,0.6,0,0.8l2.3,1.3c0.3,0.1,0.6,0.1,0.8,0l2.1-1.3
					c0.3-0.2,0.3-0.6,0-0.8l-2.3-1.3C1320.2,344.8,1319.9,344.8,1319.7,345z"/>
				<path class="st37" d="M1314.9,342.3l-2.1,1.3c-0.3,0.2-0.3,0.6,0,0.8l2.3,1.3c0.3,0.1,0.6,0.1,0.8,0l2.1-1.3
					c0.3-0.2,0.3-0.6,0-0.8l-2.3-1.3C1315.5,342.1,1315.2,342.1,1314.9,342.3z"/>
				<path class="st37" d="M1310.1,339.6l-2.1,1.3c-0.3,0.2-0.3,0.6,0,0.8l2.3,1.3c0.3,0.1,0.6,0.1,0.8,0l2.1-1.3
					c0.3-0.2,0.3-0.6,0-0.8l-2.3-1.3C1310.7,339.4,1310.4,339.4,1310.1,339.6z"/>
				<path class="st37" d="M1305.4,336.9l-2.1,1.3c-0.3,0.2-0.3,0.6,0,0.8l2.3,1.3c0.3,0.1,0.6,0.1,0.8,0l2.1-1.3
					c0.3-0.2,0.3-0.6,0-0.8l-2.3-1.3C1305.9,336.7,1305.6,336.7,1305.4,336.9z"/>
				<path class="st37" d="M1300.6,334.2l-2.1,1.3c-0.3,0.2-0.3,0.6,0,0.8l2.3,1.3c0.3,0.1,0.6,0.1,0.8,0l2.1-1.3
					c0.3-0.2,0.3-0.6,0-0.8l-2.3-1.3C1301.2,334,1300.9,334,1300.6,334.2z"/>
				<path class="st37" d="M1295.8,331.5l-2.2,1.3c-0.3,0.2-0.3,0.6,0,0.8l2.3,1.3c0.3,0.1,0.6,0.1,0.8,0l2.1-1.3
					c0.3-0.2,0.3-0.6,0-0.8l-2.3-1.3C1296.4,331.3,1296.1,331.3,1295.8,331.5z"/>
				<path class="st37" d="M1291.1,328.8l-2.1,1.3c-0.3,0.2-0.3,0.6,0,0.8l2.3,1.3c0.3,0.1,0.6,0.1,0.8,0l2.1-1.3
					c0.3-0.2,0.3-0.6,0-0.8l-2.3-1.3C1291.6,328.6,1291.3,328.6,1291.1,328.8z"/>
				<path class="st37" d="M1286.3,326l-2.1,1.3c-0.3,0.2-0.3,0.6,0,0.8l2.3,1.3c0.3,0.1,0.6,0.1,0.8,0l2.1-1.3
					c0.3-0.2,0.3-0.6,0-0.8l-2.3-1.3C1286.9,325.9,1286.6,325.9,1286.3,326z"/>
				<path class="st37" d="M1281.5,323.3l-2.1,1.3c-0.3,0.2-0.3,0.6,0,0.8l2.3,1.3c0.3,0.1,0.6,0.1,0.8,0l2.1-1.3
					c0.3-0.2,0.3-0.6,0-0.8l-2.3-1.3C1282.1,323.2,1281.8,323.2,1281.5,323.3z"/>
				<path class="st37" d="M1276.8,320.6l-2.1,1.3c-0.3,0.2-0.3,0.6,0,0.8l2.3,1.3c0.3,0.1,0.6,0.1,0.8,0l2.1-1.3
					c0.3-0.2,0.3-0.6,0-0.8l-2.3-1.3C1277.3,320.5,1277,320.5,1276.8,320.6z"/>
				<path class="st37" d="M1272,317.9l-2.1,1.3c-0.3,0.2-0.3,0.6,0,0.8l2.3,1.3c0.3,0.1,0.6,0.1,0.8,0l2.1-1.3
					c0.3-0.2,0.3-0.6,0-0.8l-2.3-1.3C1272.6,317.8,1272.3,317.8,1272,317.9z"/>
				<path class="st37" d="M1267.2,315.2l-2.1,1.3c-0.3,0.2-0.3,0.6,0,0.8l2.3,1.3c0.3,0.1,0.6,0.1,0.8,0l2.1-1.3
					c0.3-0.2,0.3-0.6,0-0.8l-2.3-1.3C1267.8,315.1,1267.5,315.1,1267.2,315.2z"/>
			</g>
			<g>
				<path class="st37" d="M1329.2,344.6l-2.1,1.3c-0.3,0.2-0.3,0.6,0,0.8l2.3,1.3c0.3,0.1,0.6,0.1,0.8,0l2.1-1.3
					c0.3-0.2,0.3-0.6,0-0.8l-2.3-1.3C1329.8,344.5,1329.5,344.5,1329.2,344.6z"/>
				<path class="st37" d="M1324.4,341.9l-2.1,1.3c-0.3,0.2-0.3,0.6,0,0.8l2.3,1.3c0.3,0.1,0.6,0.1,0.8,0l2.1-1.3
					c0.3-0.2,0.3-0.6,0-0.8l-2.3-1.3C1325,341.8,1324.7,341.8,1324.4,341.9z"/>
				<path class="st37" d="M1319.7,339.2l-2.1,1.3c-0.3,0.2-0.3,0.6,0,0.8l2.3,1.3c0.3,0.1,0.6,0.1,0.8,0l2.1-1.3
					c0.3-0.2,0.3-0.6,0-0.8l-2.3-1.3C1320.2,339.1,1319.9,339.1,1319.7,339.2z"/>
				<path class="st37" d="M1290.4,322.9l-2.1,1.3c-0.3,0.2-0.3,0.6,0,0.8l26.8,14.9c0.3,0.1,0.6,0.1,0.8,0l2.1-1.3
					c0.3-0.2,0.3-0.6,0-0.8l-26.8-14.9C1291,322.8,1290.7,322.8,1290.4,322.9z"/>
				<path class="st37" d="M1286.3,320.3l-2.1,1.3c-0.3,0.2-0.3,0.6,0,0.8l2.3,1.3c0.3,0.1,0.6,0.1,0.8,0l2.1-1.3
					c0.3-0.2,0.3-0.6,0-0.8l-2.3-1.3C1286.9,320.2,1286.6,320.2,1286.3,320.3z"/>
				<path class="st37" d="M1281.5,317.6l-2.1,1.3c-0.3,0.2-0.3,0.6,0,0.8l2.3,1.3c0.3,0.1,0.6,0.1,0.8,0l2.1-1.3
					c0.3-0.2,0.3-0.6,0-0.8l-2.3-1.3C1282.1,317.5,1281.8,317.5,1281.5,317.6z"/>
				<path class="st37" d="M1276.8,314.9l-2.1,1.3c-0.3,0.2-0.3,0.6,0,0.8l2.3,1.3c0.3,0.1,0.6,0.1,0.8,0l2.1-1.3
					c0.3-0.2,0.3-0.6,0-0.8l-2.3-1.3C1277.3,314.8,1277,314.8,1276.8,314.9z"/>
				<path class="st37" d="M1272,312.2l-2.1,1.3c-0.3,0.2-0.3,0.6,0,0.8l2.3,1.3c0.3,0.1,0.6,0.1,0.8,0l2.1-1.3
					c0.3-0.2,0.3-0.6,0-0.8l-2.3-1.3C1272.6,312.1,1272.3,312.1,1272,312.2z"/>
			</g>
		</g>
	</g>
	<g>
		<polygon class="st35" points="1338.8,305.6 1385.8,333.1 1358.5,349.1 1311.4,321.5 		"/>
		<polygon class="st38" points="1330.3,295.5 1377.3,323 1350,339 1302.9,311.3 		"/>
		<polygon class="st31" points="1350,339 1377.3,323 1377.3,327.7 1350,344 		"/>
		<polygon class="st37" points="1302.9,311.3 1350,339 1350,344 1302.9,316.1 		"/>
	</g>
	<g>
		<g>
			<path class="st35" d="M1200,257.2l27.1,15.2c0.8,0.4,0.8,1.6,0,2l-33.1,19.4c-0.9,0.5-2,0.5-2.8,0l-27.5-15.5L1200,257.2z"/>
			<polygon class="st39" points="1158.6,273.6 1223.8,268.6 1223.8,270.7 1187.5,291.9 1158.6,275.6 			"/>
			<polygon class="st40" points="1195,252.4 1223.8,268.6 1187.5,289.9 1158.6,273.6 			"/>
			<polygon class="st35" points="1161.1,266.9 1221.3,262 1221.3,268.8 1187.8,288.4 1161.1,273.4 			"/>
			<polygon class="st7" points="1187.8,264.7 1161.1,266.9 1161.1,273.4 1187.8,288.4 1187.8,288.4 			"/>
			<polygon class="st41" points="1160.3,274.5 1161.7,273.7 1161.7,266.1 1160.3,267 			"/>
			<g>
				<polygon class="st39" points="1158.6,265.4 1223.8,260.5 1223.8,262.6 1187.5,283.8 1158.6,267.5 				"/>
				<polygon class="st40" points="1195,244.3 1223.8,260.5 1187.5,281.8 1158.6,265.4 				"/>
			</g>
			<polygon class="st39" points="1160.3,275.3 1158.6,275.3 1158.6,266.1 1160.3,267 			"/>
		</g>
	</g>
	<g>
		<path class="st31" d="M1364.1,317.2l-1.9-3l23.8-15.1c2.5-1.6,5.6-1.7,8.2-0.3c2.6,1.4,4.2,4.1,4.2,7.1v5.5l-3.5-2v-3.4
			c0-1.7-0.9-3.2-2.4-4c-1.5-0.8-3.2-0.8-4.6,0.1L1364.1,317.2z"/>
	</g>
	<g>
		<path class="st37" d="M1376.5,324.5l-0.9-1.5l23.8-15.1c2.2-1.4,5-1.5,7.3-0.2c2.3,1.3,3.7,3.6,3.7,6.3v4.3l-1.8-1V314
			c0-2-1.1-3.8-2.8-4.7c-1.8-1-3.8-0.9-5.5,0.2L1376.5,324.5z"/>
	</g>
	<g>
		<g>
			<path class="st37" d="M1362.3,362.7l-0.9-1.5l63-38c1.6-1,3.6-1,5.3-0.1c1.7,0.9,2.7,2.7,2.7,4.6v2.1l-1.8-1v-1.1
				c0-1.3-0.7-2.4-1.8-3c-1.1-0.6-2.4-0.6-3.5,0.1L1362.3,362.7z"/>
		</g>
		<g>
			<path class="st42" d="M1363.5,360.4l5.1,2.9c-9.1,1.4-15.7,5.1-19.7,11.5l-9.9-5.7c3-4.7,6.8-8.1,11.5-9.9
				C1354.7,357.6,1359.5,358.1,1363.5,360.4z"/>
			<path class="st31" d="M1348.9,374.8c3.2-8.1,10.3-11.2,19.7-11.5v3.4l-16.6,9.9C1350.6,377.4,1348.9,376.4,1348.9,374.8
				L1348.9,374.8z"/>
			<polygon class="st37" points="1339,369.1 1348.9,374.8 1348.9,378.4 1339,372.6 			"/>
		</g>
	</g>
	<g>
		<g>
			<polygon class="st38" points="1336.5,282.9 1353.8,293 1343.8,298.8 1326.5,288.7 			"/>
			<polygon class="st31" points="1347.7,296.5 1343.8,298.8 1343.8,325.7 1347.7,323.3 			"/>
			<polygon class="st37" points="1326.5,288.7 1343.8,298.8 1343.8,325.7 1326.5,315.5 			"/>
			<polygon class="st31" points="1326.5,288.7 1343.8,298.8 1343.8,316.3 1326.5,306.2 			"/>
		</g>
		<polygon class="st37" points="1381.6,240.2 1285.2,184.7 1285.2,279.8 1381.6,334.8 		"/>
		<polygon class="st31" points="1374.9,243.5 1291.9,195.7 1291.9,272.8 1374.9,320.2 		"/>
		<polygon class="st43" points="1319.6,220.8 1306,213 1306,219 1319.6,226.8 		"/>
		<polygon class="st44" points="1327.1,225.1 1321.9,222.1 1321.9,228.1 1327.1,231.1 		"/>
		<polygon class="st43" points="1332.1,249.3 1321.4,243.1 1321.4,249.1 1332.1,255.2 		"/>
		<polygon class="st43" points="1315.2,250.1 1308.9,246.5 1308.9,252.5 1315.2,256.2 		"/>
		<polygon class="st44" points="1326.8,256.8 1317.6,251.5 1317.6,257.5 1326.8,262.8 		"/>
		<path class="st43" d="M1356.2,273.8v5.8l12.9,7.4v-5.4c0-0.1,0-0.2,0.1-0.3L1356.2,273.8z"/>
		<polygon class="st44" points="1342.5,276.5 1339.7,274.9 1339.7,280.8 1342.5,282.4 		"/>
		<g>
			<polygon class="st45" points="1303.6,211.6 1297.3,207.9 1297.3,214 1303.6,217.7 			"/>
			<polygon class="st45" points="1365.7,247.4 1360.5,244.4 1360.5,250.2 1365.7,253.1 			"/>
			<polygon class="st45" points="1358.2,243 1346.4,236.3 1346.4,242.1 1358.2,248.8 			"/>
			<polygon class="st45" points="1344.1,234.9 1329.5,226.5 1329.5,232.4 1344.1,240.8 			"/>
			<polygon class="st45" points="1313.9,228.1 1297.3,218.6 1297.3,224.7 1313.9,234.1 			"/>
			<polygon class="st45" points="1329.6,237.2 1316.2,229.5 1316.2,235.5 1329.6,243.1 			"/>
			<polygon class="st45" points="1339,242.6 1332,238.6 1332,244.5 1339,248.5 			"/>
			<polygon class="st45" points="1347.2,247.4 1341.4,244 1341.4,249.9 1347.2,253.2 			"/>
			<polygon class="st45" points="1319.1,241.7 1305.8,234.1 1305.8,240.2 1319.1,247.7 			"/>
			<polygon class="st45" points="1338.9,253.1 1334.5,250.7 1334.5,256.6 1338.9,259 			"/>
			<polygon class="st45" points="1351.4,260.4 1349.1,259.1 1349.1,264.9 1351.4,266.2 			"/>
			<polygon class="st45" points="1346.7,257.7 1341.2,254.5 1341.2,260.4 1346.7,263.5 			"/>
			<polygon class="st45" points="1303.5,232.7 1297.3,229.2 1297.3,235.3 1303.5,238.8 			"/>
			<polygon class="st45" points="1341.4,265.2 1329.2,258.2 1329.2,264.1 1341.4,271.1 			"/>
			<polygon class="st45" points="1353.8,272.4 1343.8,266.6 1343.8,272.5 1353.8,278.2 			"/>
			<polygon class="st45" points="1306.5,245.1 1297.3,239.8 1297.3,245.9 1306.5,251.2 			"/>
			<polygon class="st45" points="1301.9,253.1 1297.3,250.4 1297.3,256.5 1301.9,259.2 			"/>
			<polygon class="st45" points="1319.1,263 1304.3,254.5 1304.3,260.6 1319.1,269 			"/>
			<polygon class="st45" points="1329.6,269.1 1321.4,264.4 1321.4,270.3 1329.6,275 			"/>
			<polygon class="st45" points="1337.3,273.5 1332,270.5 1332,276.4 1337.3,279.4 			"/>
			<polygon class="st45" points="1306.8,266.6 1297.3,261.1 1297.3,267.2 1306.8,272.6 			"/>
		</g>
		<polygon class="st43" points="1314.9,271.2 1309.2,267.9 1309.2,274 1314.9,277.2 		"/>
		<polygon class="st44" points="1326.3,277.8 1317.2,272.6 1317.2,278.6 1326.3,283.7 		"/>
		<polygon class="st31" points="1381.6,240.2 1385.7,237.1 1385.7,332.2 1381.6,334.8 		"/>
		<polygon class="st38" points="1381.6,240.2 1385.7,237.1 1289.9,182 1285.2,184.7 		"/>
	</g>
	<path class="st46" d="M1270.7,556.6c-2.2-1.5-2.4-4.3-1.2-8.2c0.8-2.6,2.4-4.9,4.5-6.7c0.8-0.6,1.6-1.5,2.2-2.7
		c-0.1-20.6,13.2-84.6,13.2-84.6s28.6-25.8,32.3-16.5c10.1,25.4-7.6,64.6-12,80.3c-2.5,8.8-6.3,20.1-9.9,29.9
		c-1,2.7-1.4,5.5-1.3,8.3c0.1,9.5-2.9,22.5-2.9,22.5L1270.7,556.6z"/>
	<g>
		<path class="st47" d="M1270.7,556.6L1270.7,556.6c-1.9,5.7-0.3,12,4.1,16.1l2.9,2.7c0,0,4.1,3.9,2,8.9
			c-5.3,12.4,11.3,25.5,17.4,19.9c10-9.3-5.1-37.3-5.1-37.3C1285.4,557.7,1278.6,551.5,1270.7,556.6z"/>
		<path class="st48" d="M1270.7,556.6L1270.7,556.6c-1.9,5.7-0.3,12,4.1,16.1l2.9,2.7c0,0,4.1,3.9,2,8.9
			c-5.3,12.4,10.6,24.6,17.4,19.9c5-3.4-5.4-26.3-14.8-39.2C1277.2,558,1270.7,556.6,1270.7,556.6z"/>
	</g>
	<g>
		<path class="st46" d="M1207.2,538.6c-1.6-2.8-1.9-6.5,0.1-11.6l3-5.1l1.4-79.1c0,0,21-27,25.4-19.1c11.9,21.5,2,59.1-0.1,73.6
			c-2.7,18.1-10.1,48.3-10.1,48.3L1207.2,538.6z"/>
		<path class="st47" d="M1206.8,536L1206.8,536c-1.1,5.3,1.1,10.7,5.4,13.9l2.9,2.1c0,0,4.1,3,2.8,7.7c-3.3,11.6,13,21.4,17.8,15.7
			c7.8-9.4-8.8-32.6-8.8-32.6C1220.5,536,1214,531.6,1206.8,536z"/>
		<path class="st48" d="M1206.8,536L1206.8,536c-1.1,5.3,1.1,10.7,5.4,13.9l2.9,2.1c0,0,4.1,3,2.8,7.7
			c-3.3,11.6,12.2,20.7,17.8,15.7c4.3-3.8-8.8-25.9-18.8-36.2C1212.5,534.5,1206.8,536,1206.8,536z"/>
	</g>
	<g>
		<path class="st31" d="M1241.3,582.6L1241.3,582.6l0-95.8h-18.8v95.8h0c0,0.1,0,0.2,0,0.2c0,2.6,4.2,4.6,9.4,4.6
			c5.2,0,9.4-2.1,9.4-4.6C1241.3,582.8,1241.3,582.7,1241.3,582.6z"/>
		<path class="st37" d="M1241.3,545.3L1241.3,545.3l0-53.8h-18.8v53.8h0c0,0.1,0,0.2,0,0.2c0,2.6,4.2,4.6,9.4,4.6
			c5.2,0,9.4-2.1,9.4-4.6C1241.3,545.4,1241.3,545.4,1241.3,545.3z"/>
		<path class="st49" d="M1241.3,510.8v-32.2h-18.8v32.2h0c0,0.1,0,0.2,0,0.2c0,2.6,4.2,4.6,9.4,4.6c5.2,0,9.4-2.1,9.4-4.6
			C1241.3,510.9,1241.3,510.8,1241.3,510.8L1241.3,510.8z"/>
		<g>
			<path class="st31" d="M1174.4,460.1V471c0,15.6,25.7,28.2,57.5,28.2c31.7,0,57.5-12.6,57.5-28.2v-10.8H1174.4z"/>
			<ellipse class="st50" cx="1231.9" cy="460.1" rx="57.5" ry="28.2"/>
		</g>
	</g>
	<g>
		<path class="st51" d="M1266.2,241.3l5.7,2.7c0,0,0,8.9-3.2,11.6c-1.7,1.4-8.2,0.4-8.7-1.4C1259.5,252.4,1266.2,241.3,1266.2,241.3
			z"/>
		<path class="st46" d="M1192.1,429.9c0,0-4.3,18.1-1.7,26.1c3.9,11.8,34.8,21.4,50.9,21.5c26.1,0,66.8-14.8,66.8-14.8
			s23.7-9.1,11.8-28.3c-2.3-3.7-11.9-7.3-17.6-8.2c-5.9-0.9-23.1,1.7-26.7,0.2l-16.4-15.1L1192.1,429.9z"/>
		<g>
			<path class="st52" d="M1229.2,276.8c35.8,9.6,45.6,30.5,45.6,30.5c4.1,54.9,2.5,91.8,1.8,122.7c-0.1,3.8-2.4,7.2-5.8,8.9
				c-6.6,3.2-18.5,7.9-32.2,6.2c-22.4-2.7-38-14-42.5-18.1c-2.6-2.4-8.1-8.4-8.3-17c-0.5-18.8-1.8-59.2,3.7-103.2
				C1191.5,299.9,1197.8,268.3,1229.2,276.8z"/>
		</g>
		<path class="st53" d="M1264.7,399.3c-16-19.9-18-64.4-17.5-72.8c0.6-9.5,6.7-18.2,16.1-16.6c5.6,0.9,10,5.4,10.7,11.1l2.4,7.7
			c1.1,27.2,1.1,51.9,0.8,72.6C1273.1,401,1269,400.3,1264.7,399.3"/>
		<g>
			<g>
				<g>
					<path class="st54" d="M1343.6,360.9c0,0,9.9-4.6,12.7-3.3c1.9,0.9-7.4,5.1-7.4,5.1L1343.6,360.9z"/>
					<path class="st54" d="M1329.9,374.6c5.5-0.7,11.4-12.4,13.3-13.6c4.2-2.5,17.7,0.9,19.1,2.2c1.4,1.3-1.1,5.6-1.9,6.4
						c-0.8,0.9-2.6,5.5-5.1,6.5c-2,0.9-20.6,6.4-20.6,6.4L1329.9,374.6z"/>
					<path class="st54" d="M1274.5,374.8c0,0,50.9,1.1,60.2-2l1.3,9.4c0,0-30.8,16-66.5,10.4L1274.5,374.8z"/>
					<path class="st52" d="M1285.9,372.4c9.4-4.2,32.3,2.3,44.2,0.5c3.2,3.6,5.4,8.6,2.9,12.8c0,0-25,15.8-65.6,9.4L1285.9,372.4z"
						/>
				</g>
			</g>
			<g>
				<path class="st52" d="M1287,373.1c1.6-15.9-3.9-38.9-11-61.7c-1.1-5.6-5.7-8.4-11.4-9c-9.5-0.9-10.4,3.7-14.7,12.3
					c-7.1,14.2,11.9,80,17.3,80.1C1277.3,395.6,1287.4,377.4,1287,373.1z"/>
			</g>
		</g>
		<g>
			<g>
				<g>
					<path class="st55" d="M1228.2,291.8c6.9,4.2,13.4,3.3,19.8-0.7c2-1.2,3.2-3.5,3.2-5.9l0-33.6l-27,6v26.8
						C1224.2,287.4,1225.7,290.3,1228.2,291.8z"/>
				</g>
			</g>
			<path class="st54" d="M1266.4,250.9c0,16.6-3,28-12.9,28.4c-9.6,0.4-5-19.3-12-25.2c-1.5-1.3-12.2,0.4-13.8-0.9
				c-6.3-5-1.7-33.9,12.3-33.9c8.7,0,20.2,1.1,24.9,8.5C1266.8,230.6,1266.4,248.7,1266.4,250.9z"/>
			<path class="st31" d="M1259.8,269.6c-4.7-0.7-5.2-17.6-2.4-27.6c-0.8,0.5-2.2,7.5-3,8c-3,9.6-10,32.4-0.5,32
				c6.3-0.3,12-6.4,11.1-15.2C1263.4,268.4,1262.3,270,1259.8,269.6z"/>
			<path class="st31" d="M1258.3,216.5c2.4,0.9,4.2-5.4,9.1-2.6c11.8,6.8-3.9,24.1-7.8,26.1c-3.9,2-4.5,13.5-4.2,16.6
				c0,0,0,0.3-1.4-3.4s-6.7-8.8-7.3-3.2c-0.6,5.6-2.9,5.3-4.7,9.1c-1.8,3.8-11.5,10-19.2,4.3c2.7-14-16.2-21.7-3.7-40.5
				C1223.7,215.7,1237.3,204.5,1258.3,216.5z"/>
			<g>
				<path class="st55" d="M1252.7,254.9c-0.3,4.8-1.5,8.7-4.6,8.5c-3.1-0.2-6.4-6.8-6-11.6c0.3-4.8,1.4-6.5,4.5-6.2
					S1253,250.1,1252.7,254.9z"/>
				<path class="st54" d="M1253.7,252.9c-0.3,4.8-1.5,8.7-4.6,8.5c-3.1-0.2-7.2-6.2-6.9-11c0.3-4.8,2.2-7,5.3-6.8
					C1250.6,243.8,1254,248.1,1253.7,252.9z"/>
			</g>
		</g>
		<path class="st53" d="M1260,296.1c0,0-17,2.6-22.4,13.7c-4.2,8.5-11.6,26.4-27.9,24.5c-16.3-1.9-16.1-29.1-12.4-40.9
			c4.4-14.1,26.8-17.5,26.8-17.5s-0.4,9.8,6.2,11.6c7.5,2.1,20.1-2.5,20.1-2.5S1260,286.4,1260,296.1z"/>
		<path class="st52" d="M1260,296.1c0,0-17.6,4.4-23.5,11.8c-5.9,7.4-9,22.9-25.3,21c-16.3-1.9-17.6-23.7-13.9-35.5
			c4.4-14.1,26.8-17.5,26.8-17.5s-0.4,9.8,6.2,11.6c7.5,2.1,20.1-2.5,20.1-2.5S1260,286.4,1260,296.1z"/>
		<path class="st53" d="M1226.9,296.1c-7.8,6.2-18.8,4.5-20.8-1c-3.1-8.7,11.9-16.6,18-17.7c0.2,2.9,1.3,8.6,6.2,10
			c1.3,0.4,6.4,0.6,10.5,0C1234.5,289.4,1230.6,293.2,1226.9,296.1z"/>
		<g>
			<polygon class="st31" points="1272.5,246.4 1252.4,244.9 1252.5,243.5 1272.6,243.9 			"/>
		</g>
	</g>
	<g>
		<path class="st50" d="M1231.7,352.2c-11.4-7.3-49.6-27.9-49.6-27.9c-10.8-2.6-24.4,6.4-24.5,18.9c-0.2,18.9,8.4,61.5,8.4,61.5
			c0.3,9.8,5.5,18.9,13.9,24.1c13.9,8.6,26.6,22,43.7,30c10.1,4.7,24.3-6.8,24.3-17.9V381C1247.9,364,1246.1,361.4,1231.7,352.2z"/>
		<path class="st31" d="M1224,356.8c-11.4-7.3-49.6-27.9-49.6-27.9c-10.8-2.6-17.9,5.5-18.1,17.9c-0.2,18.9,1.9,62.4,1.9,62.4
			c0.3,9.8,5.5,18.9,13.9,24.1c13.9,8.6,29.3,17.8,46.3,25.8c10.1,4.7,21.6-2.6,21.6-13.7l0-59.8
			C1240.1,368.6,1238.4,366,1224,356.8z"/>
	</g>
	<path class="st31" d="M1192.6,560.2L1192.6,560.2l85.9,49.1v0c0-9.3-5-17.9-13.1-22.5l-59.7-34.2
		C1199.8,549.3,1192.6,553.5,1192.6,560.2z"/>
	<path class="st31" d="M1185.4,609.6L1185.4,609.6c0-9.3,5-17.9,13.1-22.5l59.7-34.2c5.8-3.3,13.1,0.9,13.1,7.6l0,0L1185.4,609.6z"
		/>
	<g>
		<g>
			<g>
				<ellipse class="st35" cx="1465.3" cy="371.7" rx="20.6" ry="10.1"/>
				<path class="st34" d="M1482.9,346.3h-45l7,24.3h0.1c0.5,4,7.3,7.1,15.5,7.1c8.2,0,14.9-3.1,15.5-7.1h0.1L1482.9,346.3z"/>
				<ellipse class="st44" cx="1460.4" cy="346.3" rx="22.5" ry="11.1"/>
				<path class="st56" d="M1479.1,346.3c0,4.4-8.4,8-18.7,8c-10.3,0-18.7-3.6-18.7-8c0-4.4,8.4-8,18.7-8
					C1470.8,338.4,1479.1,341.9,1479.1,346.3z"/>
			</g>
		</g>
		<path class="st39" d="M1459.3,349.2c0,0-27.6-25.3-9.5-60.9C1449.8,288.3,1486.5,316.3,1459.3,349.2z"/>
		<path class="st40" d="M1459.3,349.2c0,0-2.9-36,24.8-45.3C1484.1,303.9,1503.1,337.3,1459.3,349.2z"/>
		<path class="st40" d="M1437.9,317.4c0,0-2.6,26.8,21.4,31.8C1459.3,349.2,1459.2,326.5,1437.9,317.4z"/>
	</g>
	<g>
		<g>
			<polygon class="st31" points="1480.3,188.7 1400.6,142.8 1400.6,269.2 1480.3,314.7 			"/>
			<polygon class="st57" points="1480.3,188.7 1483.7,186.2 1483.7,312.5 1480.3,314.7 			"/>
			<polygon class="st36" points="1480.3,188.7 1483.7,186.2 1404.4,140.6 1400.6,142.8 			"/>
		</g>
		<g>
			<polygon class="st43" points="1435.3,188.4 1420.5,179.9 1420.5,186.5 1435.3,195 			"/>
			<polygon class="st44" points="1443.6,193.2 1437.9,189.9 1437.9,196.5 1443.6,199.7 			"/>
			<polygon class="st43" points="1449.1,219.6 1437.4,212.9 1437.4,219.4 1449.1,226.1 			"/>
			<polygon class="st43" points="1430.5,220.6 1423.6,216.6 1423.6,223.2 1430.5,227.2 			"/>
			<polygon class="st44" points="1443.2,227.9 1433.1,222.1 1433.1,228.6 1443.2,234.4 			"/>
			<polygon class="st44" points="1460.5,249.5 1457.4,247.7 1457.4,254.1 1460.5,255.9 			"/>
			<g>
				<polygon class="st45" points="1417.9,178.4 1410.9,174.4 1410.9,181 1417.9,185 				"/>
				<polygon class="st45" points="1462.1,203.9 1446.2,194.7 1446.2,201.2 1462.1,210.3 				"/>
				<polygon class="st45" points="1429.1,196.5 1410.9,186 1410.9,192.7 1429.1,203.1 				"/>
				<polygon class="st45" points="1446.3,206.4 1431.7,198 1431.7,204.5 1446.3,212.9 				"/>
				<polygon class="st45" points="1456.6,212.3 1448.9,207.9 1448.9,214.4 1456.6,218.8 				"/>
				<polygon class="st45" points="1465.6,217.5 1459.2,213.8 1459.2,220.3 1465.6,223.9 				"/>
				<polygon class="st7" points="1434.8,211.4 1420.3,203 1420.3,209.7 1434.8,217.9 				"/>
				<polygon class="st45" points="1456.4,223.9 1451.7,221.1 1451.7,227.6 1456.4,230.3 				"/>
				<polygon class="st45" points="1465.1,228.8 1459,225.4 1459,231.8 1465.1,235.3 				"/>
				<polygon class="st45" points="1417.7,201.5 1410.9,197.6 1410.9,204.3 1417.7,208.2 				"/>
				<polygon class="st45" points="1459.2,237.1 1445.8,229.4 1445.8,235.9 1459.2,243.5 				"/>
				<polygon class="st45" points="1421,215.1 1410.9,209.3 1410.9,215.9 1421,221.7 				"/>
				<polygon class="st45" points="1416,223.8 1410.9,220.9 1410.9,227.6 1416,230.5 				"/>
				<polygon class="st45" points="1434.8,234.6 1418.6,225.3 1418.6,232 1434.8,241.2 				"/>
				<polygon class="st7" points="1446.3,241.3 1437.4,236.1 1437.4,242.7 1446.3,247.8 				"/>
				<polygon class="st45" points="1454.8,246.2 1448.9,242.8 1448.9,249.3 1454.8,252.6 				"/>
				<polygon class="st7" points="1421.3,238.5 1410.9,232.5 1410.9,239.2 1421.3,245.2 				"/>
			</g>
			<polygon class="st43" points="1430.2,243.6 1424,240 1424,246.7 1430.2,250.2 			"/>
			<polygon class="st44" points="1442.7,250.8 1432.8,245.1 1432.8,251.7 1442.7,257.3 			"/>
		</g>
	</g>
	<g>
		<polygon class="st37" points="1338.5,119.5 1346.4,114.6 1342.5,130.2 		"/>
		<polygon class="st37" points="1330,138.8 1338,133.8 1333.8,140.9 		"/>
		<path class="st37" d="M1373.6,172.5l0-19.1l-3.8-2.1c-0.2-1.8-0.5-3.5-0.9-5.1l2.7-4.2l-6.4-17l-2.7,4.2c-0.7-1.2-1.4-2.2-2.2-3.1
			l0-8l-9-4.9l0,8c-0.8,0.1-1.5,0.4-2.2,0.7l-2.7-7.1l-5,10.3l1.3,6.9c-0.4,1.3-0.7,2.7-0.9,4.1l-3.8-2.1l0,19.1l-0.5,2.5
			c0.2,1.8,0.5,3.5,0.9,5.2l1.5,3.8l6.4,17l2.7-4.2c0.7,1.2,1.4,2.2,2.2,3.1l0,8l9,4.9l0-8c0.8-0.1,1.5-0.4,2.2-0.7l2.7,7.1l6.4-10
			l-2.7-7.1c0.4-1.3,0.7-2.7,0.9-4.2L1373.6,172.5z M1355.7,171.6c-4.8-2.6-8.7-13-8.7-23.2c0-10.2,3.9-16.3,8.7-13.7
			c4.8,2.6,5.1,12.9,5.1,23.1C1360.9,168,1360.5,174.2,1355.7,171.6z"/>
		<polygon class="st37" points="1338.3,186.4 1345.7,181.9 1340.9,180.1 		"/>
		<polygon class="st37" points="1352.3,198.3 1360.2,192.4 1360.2,184.3 1352.3,190.3 		"/>
		<path class="st44" d="M1365.6,177.4l0-19.1l-3.8-2.1c-0.2-1.8-0.5-3.5-0.9-5.1l2.7-4.2l-6.4-17l-2.7,4.2c-0.7-1.2-1.4-2.2-2.2-3.1
			l0-8l-9-4.9l0,8c-0.8,0.1-1.5,0.4-2.2,0.7l-2.7-7.1l-6.4,10l2.7,7.2c-0.4,1.3-0.7,2.7-0.9,4.1l-3.8-2.1l0,19.1l3.8,2.1
			c0.2,1.8,0.5,3.5,0.9,5.2l-2.7,4.2l6.4,17l2.7-4.2c0.7,1.2,1.4,2.2,2.2,3.1l0,8l9,4.9l0-8c0.8-0.1,1.5-0.4,2.2-0.7l2.7,7.1l6.4-10
			l-2.7-7.1c0.4-1.3,0.7-2.7,0.9-4.2L1365.6,177.4z M1347.8,176.5c-4.8-2.6-8.7-13-8.7-23.2c0-10.2,3.9-16.3,8.7-13.7
			c4.8,2.6,8.7,13,8.7,23.2C1356.5,173,1352.6,179.2,1347.8,176.5z"/>
		<polygon class="st58" points="1357.3,129.8 1365.2,124.9 1371.6,141.9 1363.6,146.8 		"/>
		<polygon class="st58" points="1371.5,181.7 1365.1,191.7 1357.1,196.7 1363.6,186.6 		"/>
		<polygon class="st58" points="1352.4,122.9 1360.5,118 1351.4,113.1 1343.4,117.9 		"/>
		<polygon class="st58" points="1365.6,177.4 1373.6,172.4 1373.6,153.3 1365.6,158.3 		"/>
	</g>
	<g>
		<g>
			<g class="st59">
				<g>
					<polyline class="st60" points="1527.4,337.5 1521.6,334.3 1516.2,344 1523.2,364.3 1527.4,362.8 1521.9,347.1 1527.4,337.5 
											"/>
					<polygon class="st60" points="1541.1,331.8 1536.3,384 1540.4,382.5 1546.3,334.9 					"/>
					<polyline class="st60" points="1560.3,356.3 1554.5,353.1 1560,368.8 1556.1,383.1 1560.2,381.7 1565.7,372 1560.3,356.3 					
						"/>
				</g>
			</g>
		</g>
		<g>
			<g class="st59">
				<g>
					<polyline class="st44" points="1523.3,338.9 1517.8,348.6 1523.2,364.3 1517.5,361.1 1512,345.4 1517.5,335.8 1523.3,338.9 
											"/>
					<polygon class="st44" points="1537,333.3 1531.1,380.9 1536.3,384 1542.1,336.4 					"/>
					<polyline class="st44" points="1556.2,357.8 1550.4,354.6 1555.8,370.3 1550.3,379.9 1556.1,383.1 1561.6,373.4 1556.2,357.8 
											"/>
				</g>
			</g>
		</g>
		<polygon class="st61" points="1517.5,335.8 1523.3,338.9 1527.4,337.5 1521.6,334.3 		"/>
		<polygon class="st61" points="1537,333.3 1541.1,331.8 1546.3,334.9 1542.1,336.4 		"/>
		<polygon class="st61" points="1550.4,354.6 1554.5,353.1 1560.3,356.3 1556.2,357.8 		"/>
	</g>
	<g>
		<polygon class="st35" points="1429.4,405.2 1437.1,400.5 1426.7,393 1420,398.2 		"/>
		<polygon class="st35" points="1419.1,411.1 1426.7,406.7 1414.7,397.6 1407.9,402.8 		"/>
		<polygon class="st35" points="1408.6,417.4 1416.1,412.8 1406,405.4 1399.3,410.6 		"/>
		<polygon class="st35" points="1397.4,424 1405.1,419.5 1396.5,413.1 1389.7,418.3 		"/>
		<g>
			<g>
				<polygon class="st62" points="1422.7,384.7 1415,379 1415,395.1 1422.7,400 				"/>
				<polygon class="st63" points="1422.7,384.7 1429.4,379.5 1429.4,395.7 1422.7,400 				"/>
				<polygon class="st64" points="1422.7,384.7 1429.4,379.5 1421.7,373.8 1415,379 				"/>
			</g>
			<g>
				<polygon class="st34" points="1412.6,358.1 1404.9,352.4 1404.9,401 1412.6,405.9 				"/>
				<polygon class="st44" points="1412.6,358.1 1419.3,353 1419.3,401.6 1412.6,405.9 				"/>
				<polygon class="st35" points="1412.6,358.1 1419.3,353 1411.6,347.3 1404.9,352.4 				"/>
			</g>
			<g>
				<polygon class="st53" points="1401.9,370.9 1394.3,365.2 1394.3,407.3 1401.9,412.2 				"/>
				<polygon class="st52" points="1401.9,370.9 1408.7,365.8 1408.7,407.9 1401.9,412.2 				"/>
				<polygon class="st65" points="1401.9,370.9 1408.7,365.8 1401,360 1394.3,365.2 				"/>
			</g>
			<g>
				<polygon class="st39" points="1391.3,396.1 1383.7,390.4 1383.7,414.6 1391.3,419.5 				"/>
				<polygon class="st40" points="1391.3,396.1 1398.1,390.9 1398.1,415.2 1391.3,419.5 				"/>
				<polygon class="st66" points="1391.3,396.1 1398.1,390.9 1390.4,385.2 1383.7,390.4 				"/>
			</g>
		</g>
	</g>
	<g>
		<path class="st31" d="M1204.4,496.4L1204.4,496.4l0-95.8h-18.8v95.8h0c0,0.1,0,0.2,0,0.2c0,2.6,4.2,4.6,9.4,4.6
			c5.2,0,9.4-2.1,9.4-4.6C1204.4,496.6,1204.4,496.5,1204.4,496.4z"/>
		<path class="st37" d="M1204.4,459.1L1204.4,459.1l0-53.8h-18.8v53.8h0c0,0.1,0,0.2,0,0.2c0,2.6,4.2,4.6,9.4,4.6
			c5.2,0,9.4-2.1,9.4-4.6C1204.4,459.2,1204.4,459.2,1204.4,459.1z"/>
		<path class="st49" d="M1204.4,424.6v-32.2h-18.8v32.2h0c0,0.1,0,0.2,0,0.2c0,2.6,4.2,4.6,9.4,4.6c5.2,0,9.4-2.1,9.4-4.6
			C1204.4,424.7,1204.4,424.6,1204.4,424.6L1204.4,424.6z"/>
		<path class="st49" d="M1185.6,392.5v32.2h18.8v-32.2h0c0-0.1,0-0.2,0-0.2c0-2.6-4.2-4.6-9.4-4.6c-5.2,0-9.4,2.1-9.4,4.6
			C1185.6,392.3,1185.6,392.4,1185.6,392.5L1185.6,392.5z"/>
	</g>
	<ellipse class="st31" cx="1194.7" cy="391.9" rx="7.4" ry="2.9"/>
</g>
</svg>
